<svg version="1.1" viewBox="0.0 0.0 479.5564304461942 204.5748031496063" fill="none" stroke="none" stroke-linecap="square" stroke-miterlimit="10" xmlns:xlink="http://www.w3.org/1999/xlink" xmlns="http://www.w3.org/2000/svg"><clipPath id="p.0"><path d="m0 0l479.55643 0l0 204.5748l-479.55643 0l0 -204.5748z" clip-rule="nonzero"/></clipPath><g clip-path="url(#p.0)"><path fill="#000000" fill-opacity="0.0" d="m0 0l479.55643 0l0 204.5748l-479.55643 0z" fill-rule="evenodd"/><path fill="#000000" fill-opacity="0.0" d="m0 0l304.22046 0l0 151.43307l-304.22046 0z" fill-rule="evenodd"/><path fill="#ffffff" d="m49.6875 70.6q0.796875 1.5 1.46875 3.109375q0.6875 1.609375 1.328125 3.234375q0.65625 -1.671875 1.359375 -3.296875q0.703125 -1.640625 1.5 -3.140625l19.96875 -37.375q0.375 -0.703125 0.765625 -1.125q0.390625 -0.421875 0.875 -0.609375q0.5 -0.1875 1.109375 -0.21875q0.609375 -0.046875 1.453125 -0.046875l9.46875 0l0 67.46875l-11.0625 0l0 -43.578125q0 -1.21875 0.0625 -2.65625q0.078125 -1.453125 0.21875 -2.953125l-20.390625 38.265625q-0.703125 1.3125 -1.828125 2.03125q-1.109375 0.71875 -2.609375 0.71875l-1.71875 0q-1.5 0 -2.625 -0.71875q-1.109375 -0.71875 -1.8125 -2.03125l-20.671875 -38.40625q0.1875 1.546875 0.25 3.015625q0.078125 1.46875 0.078125 2.734375l0 43.578125l-11.0625 0l0 -67.46875l9.46875 0q0.84375 0 1.453125 0.046875q0.609375 0.03125 1.09375 0.21875q0.484375 0.1875 0.90625 0.609375q0.421875 0.421875 0.796875 1.125l20.15625 37.46875l0 0zm72.701294 -20.625q5.375 0 9.734375 1.734375q4.359375 1.71875 7.4375 4.890625q3.078125 3.171875 4.75 7.75q1.6875 4.578125 1.6875 10.21875q0 5.6875 -1.6875 10.265625q-1.671875 4.578125 -4.75 7.796875q-3.078125 3.21875 -7.4375 4.953125q-4.359375 1.71875 -9.734375 1.71875q-5.359375 0 -9.75 -1.71875q-4.390625 -1.734375 -7.5 -4.953125q-3.09375 -3.21875 -4.796875 -7.796875q-1.703125 -4.578125 -1.703125 -10.265625q0 -5.640625 1.703125 -10.21875q1.703125 -4.578125 4.796875 -7.75q3.109375 -3.171875 7.5 -4.890625q4.390625 -1.734375 9.75 -1.734375zm0 40.453125q5.984375 0 8.84375 -4.0q2.875 -4.015625 2.875 -11.765625q0 -7.75 -2.875 -11.796875q-2.859375 -4.0625 -8.84375 -4.0625q-6.0625 0 -8.953125 4.078125q-2.890625 4.078125 -2.890625 11.78125q0 7.703125 2.890625 11.734375q2.890625 4.03125 8.953125 4.03125zm55.063843 8.171875l-10.453125 0l-19.03125 -47.875l9.5625 0q1.265625 0 2.125 0.609375q0.859375 0.609375 1.1875 1.53125l9.234375 25.578125q0.796875 2.234375 1.328125 4.390625q0.546875 2.140625 0.96875 4.28125q0.421875 -2.140625 0.953125 -4.28125q0.53125 -2.15625 1.375 -4.390625l9.46875 -25.578125q0.328125 -0.921875 1.171875 -1.53125q0.84375 -0.609375 2.0 -0.609375l9.109375 0l-19.0 47.875zm38.087357 -47.875l0 47.875l-11.53125 0l0 -47.875l11.53125 0zm1.71875 -13.953125q0 1.484375 -0.609375 2.796875q-0.59375 1.3125 -1.609375 2.296875q-1.0 0.96875 -2.359375 1.5625q-1.34375 0.578125 -2.890625 0.578125q-1.484375 0 -2.8125 -0.578125q-1.328125 -0.59375 -2.3125 -1.5625q-0.984375 -0.984375 -1.578125 -2.296875q-0.578125 -1.3125 -0.578125 -2.796875q0 -1.546875 0.578125 -2.890625q0.59375 -1.359375 1.578125 -2.328125q0.984375 -0.984375 2.3125 -1.5625q1.328125 -0.59375 2.8125 -0.59375q1.546875 0 2.890625 0.59375q1.359375 0.578125 2.359375 1.5625q1.015625 0.96875 1.609375 2.328125q0.609375 1.34375 0.609375 2.890625zm31.073135 13.203125q4.53125 0 8.328125 1.453125q3.8125 1.4375 6.5625 4.21875q2.75 2.78125 4.28125 6.8125q1.546875 4.03125 1.546875 9.21875q0 1.296875 -0.109375 2.171875q-0.109375 0.859375 -0.421875 1.359375q-0.296875 0.484375 -0.8125 0.703125q-0.515625 0.203125 -1.3125 0.203125l-29.578125 0q0.515625 7.359375 3.96875 10.8125q3.453125 3.453125 9.140625 3.453125q2.796875 0 4.828125 -0.640625q2.03125 -0.65625 3.546875 -1.453125q1.515625 -0.796875 2.65625 -1.4375q1.15625 -0.65625 2.21875 -0.65625q0.703125 0 1.21875 0.28125q0.515625 0.265625 0.890625 0.78125l3.359375 4.203125q-1.921875 2.234375 -4.296875 3.765625q-2.375 1.515625 -4.96875 2.421875q-2.59375 0.90625 -5.28125 1.28125q-2.671875 0.375 -5.203125 0.375q-4.984375 0 -9.28125 -1.65625q-4.296875 -1.65625 -7.46875 -4.890625q-3.171875 -3.25 -5.0 -8.03125q-1.8125 -4.796875 -1.8125 -11.09375q0 -4.890625 1.578125 -9.203125q1.59375 -4.328125 4.5625 -7.515625q2.96875 -3.203125 7.234375 -5.0625q4.265625 -1.875 9.625 -1.875zm0.234375 8.265625q-5.03125 0 -7.875 2.84375q-2.84375 2.84375 -3.640625 8.078125l21.640625 0q0 -2.25 -0.609375 -4.234375q-0.59375 -1.984375 -1.859375 -3.46875q-1.25 -1.5 -3.171875 -2.359375q-1.90625 -0.859375 -4.484375 -0.859375z" fill-rule="nonzero"/><path fill="#000000" fill-opacity="0.0" d="m284.3993 67.81299l304.22046 0l0 151.43307l-304.22046 0z" fill-rule="evenodd"/><path fill="#ffffff" d="m347.75867 98.94424l0 10.3125l-20.296875 0l0 57.156258l-12.546875 0l0 -57.156258l-20.390625 0l0 -10.3125l53.234375 0zm33.455994 67.46876l-5.171875 0q-1.640625 0 -2.578125 -0.484375q-0.921875 -0.5 -1.390625 -1.984375l-1.03125 -3.40625q-1.8125 1.625 -3.5625 2.875q-1.75 1.234375 -3.625 2.078125q-1.859375 0.828125 -3.96875 1.25q-2.09375 0.421875 -4.65625 0.421875q-3.03125 0 -5.609375 -0.8125q-2.5625 -0.828125 -4.40625 -2.453125q-1.84375 -1.640625 -2.875 -4.0625q-1.015625 -2.421875 -1.015625 -5.640625q0 -2.71875 1.421875 -5.34375q1.421875 -2.640625 4.734375 -4.765625q3.3125 -2.125 8.8125 -3.515625q5.515625 -1.40625 13.6875 -1.59375l0 -2.796875q0 -4.8125 -2.03125 -7.125q-2.03125 -2.3125076 -5.90625 -2.3125076q-2.796875 0 -4.671875 0.65625q-1.859375 0.6562576 -3.234375 1.4843826q-1.375 0.8125 -2.546875 1.46875q-1.171875 0.640625 -2.5625 0.640625q-1.171875 0 -2.015625 -0.59375q-0.828125 -0.609375 -1.34375 -1.5l-2.109375 -3.6875076q8.265625 -7.5625 19.921875 -7.5625q4.203125 0 7.484375 1.375q3.296875 1.375 5.578125 3.828125q2.296875 2.453125 3.484375 5.8593826q1.1875 3.40625 1.1875 7.46875l0 30.234375zm-22.390625 -7.1875q1.765625 0 3.25 -0.328125q1.5 -0.328125 2.828125 -0.96875q1.34375 -0.65625 2.578125 -1.609375q1.234375 -0.96875 2.5 -2.265625l0 -8.078125q-5.046875 0.234375 -8.4375 0.859375q-3.375 0.625 -5.4375 1.609375q-2.046875 0.984375 -2.90625 2.296875q-0.859375 1.296875 -0.859375 2.84375q0 3.03125 1.796875 4.34375q1.796875 1.296875 4.6875 1.296875zm46.01346 -62.156258l0 69.34376l-11.53125 0l0 -69.34376l11.53125 0zm24.682495 0l0 39.718758l2.140625 0q1.171875 0 1.828125 -0.328125q0.65625 -0.328125 1.390625 -1.21875l11.90625 -14.703133q0.796875 -0.921875 1.671875 -1.453125q0.890625 -0.546875 2.34375 -0.546875l10.546875 0l-14.890625 17.781258q-0.796875 0.96875 -1.640625 1.796875q-0.828125 0.8125 -1.8125 1.421875q0.984375 0.703125 1.71875 1.640625q0.75 0.921875 1.5 2.0l15.953125 23.234375l-10.40625 0q-1.34375 0 -2.28125 -0.46875q-0.9375 -0.46875 -1.671875 -1.578125l-12.1875 -18.15625q-0.703125 -1.078125 -1.40625 -1.40625q-0.6875 -0.328125 -2.09375 -0.328125l-2.609375 0l0 21.9375l-11.53125 0l0 -69.34376l11.53125 0z" fill-rule="nonzero"/><path fill="#000000" fill-opacity="0.0" d="m7.9711285 10.627955l269.66928 0" fill-rule="evenodd"/><path stroke="#ffffff" stroke-width="8.0" stroke-linejoin="round" stroke-linecap="butt" d="m7.9711285 10.627955l269.66928 0" fill-rule="evenodd"/><path fill="#000000" fill-opacity="0.0" d="m7.9711285 119.617455l269.66928 0" fill-rule="evenodd"/><path stroke="#ffffff" stroke-width="8.0" stroke-linejoin="round" stroke-linecap="butt" d="m7.9711285 119.617455l269.66928 0" fill-rule="evenodd"/><path fill="#000000" fill-opacity="0.0" d="m290.9882 190.11154l180.62991 0" fill-rule="evenodd"/><path stroke="#ffffff" stroke-width="8.0" stroke-linejoin="round" stroke-linecap="butt" d="m290.9882 190.11154l180.62991 0" fill-rule="evenodd"/><path fill="#000000" fill-opacity="0.0" d="m290.9882 75.926834l180.62991 0" fill-rule="evenodd"/><path stroke="#ffffff" stroke-width="8.0" stroke-linejoin="round" stroke-linecap="butt" d="m290.9882 75.926834l180.62991 0" fill-rule="evenodd"/></g></svg>